<svg xmlns="http://www.w3.org/2000/svg" xmlns:xlink="http://www.w3.org/1999/xlink" width="500" zoomAndPan="magnify" viewBox="0 0 375 374.999991" height="500" preserveAspectRatio="xMidYMid meet" version="1.0"><defs><g/><clipPath id="1bce0e1f7d"><rect x="0" width="41" y="0" height="10"/></clipPath></defs><rect x="-37.5" width="450" fill="#ffffff" y="-37.499999" height="449.999989" fill-opacity="1"/><rect x="-37.5" width="450" fill="#ffffff" y="-37.499999" height="449.999989" fill-opacity="1"/><g fill="#f5f3ef" fill-opacity="1"><g transform="translate(88.19896, 189.088017)"><g><path d="M 3.4375 0 C 4.476562 -1.039062 5.0625 -2.410156 5.1875 -4.109375 C 5.320312 -5.816406 5.390625 -7.585938 5.390625 -9.421875 L 5.390625 -70.171875 L 6.578125 -70.171875 C 7.421875 -65.460938 9.070312 -61.453125 11.53125 -58.140625 C 13.988281 -54.835938 16.945312 -51.976562 20.40625 -49.5625 C 23.875 -47.144531 27.585938 -44.953125 31.546875 -42.984375 C 35.503906 -41.023438 39.414062 -39.078125 43.28125 -37.140625 C 47.144531 -35.210938 50.675781 -33.054688 53.875 -30.671875 C 57.082031 -28.285156 59.679688 -25.472656 61.671875 -22.234375 C 63.671875 -18.992188 64.769531 -15.050781 64.96875 -10.40625 L 64.375 -43.078125 C 64.175781 -50.273438 63.535156 -56.082031 62.453125 -60.5 C 61.378906 -64.914062 60.320312 -67.648438 59.28125 -68.703125 L 68.203125 -68.703125 C 67.160156 -67.648438 66.570312 -66.289062 66.4375 -64.625 C 66.3125 -62.957031 66.25 -61.175781 66.25 -59.28125 L 66.25 1.46875 L 64.96875 1.46875 L 64.96875 0 C 64.96875 -4.707031 64.148438 -8.84375 62.515625 -12.40625 C 60.878906 -15.976562 58.671875 -19.132812 55.890625 -21.875 C 53.109375 -24.625 49.984375 -27.09375 46.515625 -29.28125 C 43.046875 -31.476562 39.484375 -33.523438 35.828125 -35.421875 C 32.285156 -37.328125 28.796875 -39.175781 25.359375 -40.96875 C 21.929688 -42.769531 18.84375 -44.734375 16.09375 -46.859375 C 13.34375 -48.984375 11.117188 -51.40625 9.421875 -54.125 C 7.722656 -56.84375 6.804688 -60 6.671875 -63.59375 L 7.265625 -25.609375 C 7.460938 -18.484375 8.097656 -12.691406 9.171875 -8.234375 C 10.253906 -3.785156 11.316406 -1.039062 12.359375 0 Z M 3.4375 0 "/></g></g></g><g transform="matrix(1, 0, 0, 1, 107, 186)"><g clip-path="url(#1bce0e1f7d)"><g fill="#b59a84" fill-opacity="1"><g transform="translate(1.038841, 7.800442)"><g><path d="M 1.890625 -4.90625 L 2.515625 -4.90625 L 4.375 0 L 3.84375 0 L 3.390625 -1.1875 L 1.015625 -1.1875 L 0.578125 0 L 0.03125 0 Z M 3.234375 -1.640625 L 2.21875 -4.34375 L 2.1875 -4.34375 L 1.1875 -1.640625 Z M 3.234375 -1.640625 "/></g></g></g><g fill="#b59a84" fill-opacity="1"><g transform="translate(7.549337, 7.800442)"><g><path d="M 2.546875 0.109375 C 2.234375 0.109375 1.945312 0.0546875 1.6875 -0.046875 C 1.425781 -0.160156 1.203125 -0.320312 1.015625 -0.53125 C 0.828125 -0.75 0.679688 -1.015625 0.578125 -1.328125 C 0.472656 -1.648438 0.421875 -2.023438 0.421875 -2.453125 C 0.421875 -2.867188 0.472656 -3.234375 0.578125 -3.546875 C 0.679688 -3.867188 0.820312 -4.132812 1 -4.34375 C 1.1875 -4.5625 1.410156 -4.722656 1.671875 -4.828125 C 1.929688 -4.941406 2.210938 -5 2.515625 -5 C 2.773438 -5 3.007812 -4.960938 3.21875 -4.890625 C 3.425781 -4.816406 3.601562 -4.710938 3.75 -4.578125 C 3.894531 -4.453125 4.003906 -4.300781 4.078125 -4.125 C 4.160156 -3.957031 4.203125 -3.78125 4.203125 -3.59375 C 4.203125 -3.519531 4.195312 -3.453125 4.1875 -3.390625 C 4.1875 -3.328125 4.179688 -3.273438 4.171875 -3.234375 C 4.160156 -3.179688 4.148438 -3.132812 4.140625 -3.09375 L 3.640625 -3.09375 C 3.648438 -3.132812 3.664062 -3.179688 3.6875 -3.234375 C 3.695312 -3.273438 3.703125 -3.320312 3.703125 -3.375 C 3.710938 -3.4375 3.71875 -3.5 3.71875 -3.5625 C 3.71875 -3.695312 3.691406 -3.820312 3.640625 -3.9375 C 3.585938 -4.0625 3.507812 -4.164062 3.40625 -4.25 C 3.300781 -4.34375 3.175781 -4.414062 3.03125 -4.46875 C 2.882812 -4.519531 2.710938 -4.546875 2.515625 -4.546875 C 2.285156 -4.546875 2.070312 -4.503906 1.875 -4.421875 C 1.6875 -4.335938 1.519531 -4.207031 1.375 -4.03125 C 1.226562 -3.851562 1.113281 -3.632812 1.03125 -3.375 C 0.957031 -3.113281 0.921875 -2.804688 0.921875 -2.453125 C 0.921875 -2.097656 0.960938 -1.785156 1.046875 -1.515625 C 1.128906 -1.253906 1.242188 -1.035156 1.390625 -0.859375 C 1.535156 -0.691406 1.707031 -0.5625 1.90625 -0.46875 C 2.101562 -0.382812 2.320312 -0.34375 2.5625 -0.34375 C 2.789062 -0.34375 2.984375 -0.375 3.140625 -0.4375 C 3.304688 -0.5 3.441406 -0.570312 3.546875 -0.65625 C 3.660156 -0.738281 3.757812 -0.835938 3.84375 -0.953125 L 3.84375 -2.109375 L 2.765625 -2.109375 L 2.765625 -2.5625 L 4.328125 -2.5625 L 4.328125 -0.796875 C 4.210938 -0.617188 4.066406 -0.46875 3.890625 -0.34375 C 3.742188 -0.226562 3.554688 -0.125 3.328125 -0.03125 C 3.109375 0.0625 2.847656 0.109375 2.546875 0.109375 Z M 2.546875 0.109375 "/></g></g></g><g fill="#b59a84" fill-opacity="1"><g transform="translate(14.465863, 7.800442)"><g><path d="M 0.671875 -4.90625 L 3.625 -4.90625 L 3.625 -4.4375 L 1.15625 -4.4375 L 1.15625 -2.671875 L 3.171875 -2.671875 L 3.171875 -2.21875 L 1.15625 -2.21875 L 1.15625 -0.453125 L 3.625 -0.453125 L 3.625 0 L 0.671875 0 Z M 0.671875 -4.90625 "/></g></g></g><g fill="#b59a84" fill-opacity="1"><g transform="translate(20.430317, 7.800442)"><g><path d="M 0.671875 -4.90625 L 1.21875 -4.90625 L 3.9375 -0.8125 L 3.96875 -0.8125 L 3.96875 -4.90625 L 4.46875 -4.90625 L 4.46875 0 L 3.90625 0 L 1.1875 -4.078125 L 1.15625 -4.078125 L 1.15625 0 L 0.671875 0 Z M 0.671875 -4.90625 "/></g></g></g><g fill="#b59a84" fill-opacity="1"><g transform="translate(27.66187, 7.800442)"><g><path d="M 2.546875 0.109375 C 2.234375 0.109375 1.945312 0.0546875 1.6875 -0.046875 C 1.425781 -0.160156 1.203125 -0.320312 1.015625 -0.53125 C 0.828125 -0.75 0.679688 -1.015625 0.578125 -1.328125 C 0.472656 -1.648438 0.421875 -2.023438 0.421875 -2.453125 C 0.421875 -2.867188 0.472656 -3.234375 0.578125 -3.546875 C 0.679688 -3.867188 0.820312 -4.132812 1 -4.34375 C 1.1875 -4.5625 1.410156 -4.722656 1.671875 -4.828125 C 1.929688 -4.941406 2.210938 -5 2.515625 -5 C 2.773438 -5 3.007812 -4.960938 3.21875 -4.890625 C 3.425781 -4.816406 3.601562 -4.710938 3.75 -4.578125 C 3.894531 -4.453125 4.003906 -4.300781 4.078125 -4.125 C 4.160156 -3.957031 4.203125 -3.78125 4.203125 -3.59375 C 4.203125 -3.519531 4.195312 -3.453125 4.1875 -3.390625 C 4.1875 -3.328125 4.179688 -3.273438 4.171875 -3.234375 C 4.160156 -3.179688 4.148438 -3.132812 4.140625 -3.09375 L 3.640625 -3.09375 C 3.648438 -3.132812 3.664062 -3.179688 3.6875 -3.234375 C 3.695312 -3.273438 3.703125 -3.320312 3.703125 -3.375 C 3.710938 -3.4375 3.71875 -3.5 3.71875 -3.5625 C 3.71875 -3.695312 3.691406 -3.820312 3.640625 -3.9375 C 3.585938 -4.0625 3.507812 -4.164062 3.40625 -4.25 C 3.300781 -4.34375 3.175781 -4.414062 3.03125 -4.46875 C 2.882812 -4.519531 2.710938 -4.546875 2.515625 -4.546875 C 2.285156 -4.546875 2.070312 -4.503906 1.875 -4.421875 C 1.6875 -4.335938 1.519531 -4.207031 1.375 -4.03125 C 1.226562 -3.851562 1.113281 -3.632812 1.03125 -3.375 C 0.957031 -3.113281 0.921875 -2.804688 0.921875 -2.453125 C 0.921875 -2.097656 0.960938 -1.785156 1.046875 -1.515625 C 1.128906 -1.253906 1.242188 -1.035156 1.390625 -0.859375 C 1.535156 -0.691406 1.707031 -0.5625 1.90625 -0.46875 C 2.101562 -0.382812 2.320312 -0.34375 2.5625 -0.34375 C 2.8125 -0.34375 3.023438 -0.382812 3.203125 -0.46875 C 3.378906 -0.550781 3.523438 -0.640625 3.640625 -0.734375 C 3.773438 -0.859375 3.890625 -0.992188 3.984375 -1.140625 L 4.265625 -0.796875 C 4.160156 -0.617188 4.023438 -0.46875 3.859375 -0.34375 C 3.722656 -0.226562 3.546875 -0.125 3.328125 -0.03125 C 3.109375 0.0625 2.847656 0.109375 2.546875 0.109375 Z M 2.546875 0.109375 "/></g></g></g><g fill="#b59a84" fill-opacity="1"><g transform="translate(34.340375, 7.800442)"><g><path d="M 1.75 -1.765625 L 0 -4.90625 L 0.578125 -4.90625 L 1.984375 -2.359375 L 2.015625 -2.359375 L 3.421875 -4.90625 L 3.984375 -4.90625 L 2.234375 -1.765625 L 2.234375 0 L 1.75 0 Z M 1.75 -1.765625 "/></g></g></g></g></g><g fill="#f5f3ef" fill-opacity="1"><g transform="translate(155.659198, 194.094568)"><g><path d="M 5.84375 0 L 1.078125 0 L 19.546875 -51.59375 L 18.40625 -54.140625 L 23.171875 -54.140625 L 47.3125 0 L 42.546875 0 L 38.609375 -8.828125 C 37.953125 -10.304688 36.992188 -11.640625 35.734375 -12.828125 C 34.472656 -14.023438 33.046875 -15.035156 31.453125 -15.859375 C 29.867188 -16.691406 28.226562 -17.320312 26.53125 -17.75 C 24.832031 -18.1875 23.222656 -18.40625 21.703125 -18.40625 C 19.972656 -18.40625 18.269531 -18.132812 16.59375 -17.59375 C 14.914062 -17.050781 13.28125 -16.203125 11.6875 -15.046875 C 11.113281 -14.617188 10.535156 -13.90625 9.953125 -12.90625 C 9.378906 -11.914062 8.96875 -10.988281 8.71875 -10.125 Z M 11.75 -20.515625 C 11.5 -19.546875 11.585938 -19.0625 12.015625 -19.0625 C 12.234375 -19.0625 12.628906 -19.203125 13.203125 -19.484375 C 14.285156 -20.097656 15.40625 -20.539062 16.5625 -20.8125 C 17.71875 -21.082031 18.894531 -21.21875 20.09375 -21.21875 C 22.65625 -21.21875 25.179688 -20.675781 27.671875 -19.59375 C 30.160156 -18.507812 32.429688 -17.125 34.484375 -15.4375 C 35.097656 -14.925781 35.484375 -14.734375 35.640625 -14.859375 C 35.804688 -14.984375 35.726562 -15.410156 35.40625 -16.140625 L 21.4375 -47.421875 C 21.113281 -48.179688 20.769531 -48.5625 20.40625 -48.5625 C 20.050781 -48.5625 19.726562 -48.128906 19.4375 -47.265625 Z M 11.75 -20.515625 "/></g></g></g><g fill="#f5f3ef" fill-opacity="1"><g transform="translate(197.90094, 194.094568)"><g><path d="M 4.328125 0 L 4.328125 -54.140625 L 29.234375 -54.140625 C 31.972656 -54.140625 34.328125 -53.785156 36.296875 -53.078125 C 38.265625 -52.378906 39.878906 -51.453125 41.140625 -50.296875 C 42.410156 -49.140625 43.414062 -47.863281 44.15625 -46.46875 C 44.894531 -45.082031 45.40625 -43.710938 45.6875 -42.359375 C 45.976562 -41.003906 46.125 -39.785156 46.125 -38.703125 C 46.125 -37.628906 45.976562 -36.414062 45.6875 -35.0625 C 45.40625 -33.707031 44.894531 -32.351562 44.15625 -31 C 43.414062 -29.644531 42.410156 -28.390625 41.140625 -27.234375 C 39.878906 -26.078125 38.273438 -25.132812 36.328125 -24.40625 C 34.378906 -23.6875 32.015625 -23.3125 29.234375 -23.28125 L 27.671875 -23.28125 C 26.867188 -23.28125 26.503906 -23.148438 26.578125 -22.890625 C 26.648438 -22.640625 27.015625 -22.265625 27.671875 -21.765625 C 29.179688 -20.578125 30.722656 -18.988281 32.296875 -17 C 33.867188 -15.007812 35.644531 -12.679688 37.625 -10.015625 C 38.75 -8.535156 39.929688 -7.128906 41.171875 -5.796875 C 42.421875 -4.460938 43.613281 -3.296875 44.75 -2.296875 C 45.882812 -1.304688 46.847656 -0.539062 47.640625 0 L 41.53125 0 C 40.257812 -0.757812 38.957031 -1.847656 37.625 -3.265625 C 36.289062 -4.691406 34.957031 -6.289062 33.625 -8.0625 C 32.289062 -9.832031 30.960938 -11.601562 29.640625 -13.375 C 28.328125 -15.144531 27.035156 -16.773438 25.765625 -18.265625 C 24.503906 -19.765625 23.273438 -20.972656 22.078125 -21.890625 C 20.890625 -22.816406 19.753906 -23.28125 18.671875 -23.28125 L 13.859375 -23.28125 L 13.859375 -24.359375 L 24.46875 -24.359375 C 29.882812 -24.359375 33.988281 -25.648438 36.78125 -28.234375 C 39.582031 -30.816406 40.984375 -34.304688 40.984375 -38.703125 C 40.984375 -43.109375 39.582031 -46.601562 36.78125 -49.1875 C 33.988281 -51.769531 29.882812 -53.0625 24.46875 -53.0625 L 11.484375 -53.0625 C 10.503906 -53.0625 9.78125 -52.859375 9.3125 -52.453125 C 8.84375 -52.054688 8.609375 -51.117188 8.609375 -49.640625 C 8.609375 -49.429688 8.609375 -48.578125 8.609375 -47.078125 C 8.609375 -45.578125 8.609375 -43.625 8.609375 -41.21875 C 8.609375 -38.820312 8.609375 -36.160156 8.609375 -33.234375 C 8.609375 -30.316406 8.613281 -27.3125 8.625 -24.21875 C 8.644531 -21.132812 8.65625 -18.148438 8.65625 -15.265625 C 8.65625 -12.378906 8.65625 -9.789062 8.65625 -7.5 C 8.65625 -5.207031 8.65625 -3.382812 8.65625 -2.03125 C 8.65625 -0.675781 8.65625 0 8.65625 0 Z M 4.328125 0 "/></g></g></g><g fill="#f5f3ef" fill-opacity="1"><g transform="translate(241.548724, 194.094568)"><g><path d="M 5.84375 0 L 1.078125 0 L 19.546875 -51.59375 L 18.40625 -54.140625 L 23.171875 -54.140625 L 47.3125 0 L 42.546875 0 L 38.609375 -8.828125 C 37.953125 -10.304688 36.992188 -11.640625 35.734375 -12.828125 C 34.472656 -14.023438 33.046875 -15.035156 31.453125 -15.859375 C 29.867188 -16.691406 28.226562 -17.320312 26.53125 -17.75 C 24.832031 -18.1875 23.222656 -18.40625 21.703125 -18.40625 C 19.972656 -18.40625 18.269531 -18.132812 16.59375 -17.59375 C 14.914062 -17.050781 13.28125 -16.203125 11.6875 -15.046875 C 11.113281 -14.617188 10.535156 -13.90625 9.953125 -12.90625 C 9.378906 -11.914062 8.96875 -10.988281 8.71875 -10.125 Z M 11.75 -20.515625 C 11.5 -19.546875 11.585938 -19.0625 12.015625 -19.0625 C 12.234375 -19.0625 12.628906 -19.203125 13.203125 -19.484375 C 14.285156 -20.097656 15.40625 -20.539062 16.5625 -20.8125 C 17.71875 -21.082031 18.894531 -21.21875 20.09375 -21.21875 C 22.65625 -21.21875 25.179688 -20.675781 27.671875 -19.59375 C 30.160156 -18.507812 32.429688 -17.125 34.484375 -15.4375 C 35.097656 -14.925781 35.484375 -14.734375 35.640625 -14.859375 C 35.804688 -14.984375 35.726562 -15.410156 35.40625 -16.140625 L 21.4375 -47.421875 C 21.113281 -48.179688 20.769531 -48.5625 20.40625 -48.5625 C 20.050781 -48.5625 19.726562 -48.128906 19.4375 -47.265625 Z M 11.75 -20.515625 "/></g></g></g><path stroke-linecap="butt" transform="matrix(0.75, 0, 0, 0.75, 158.555444, 200.261046)" fill="none" stroke-linejoin="miter" d="M -0.00100932 1.000897 L 169.900044 1.000897 " stroke="#f5f3ef" stroke-width="2" stroke-opacity="1" stroke-miterlimit="4"/></svg>
