<svg xmlns="http://www.w3.org/2000/svg" xmlns:xlink="http://www.w3.org/1999/xlink" width="500" zoomAndPan="magnify" viewBox="0 0 375 374.999991" height="500" preserveAspectRatio="xMidYMid meet" version="1.0"><defs><g/><clipPath id="050e4a7eec"><path d="M 31.421875 24.710938 L 327.03125 24.710938 L 327.03125 320.320312 L 31.421875 320.320312 Z M 31.421875 24.710938 " clip-rule="nonzero"/></clipPath><clipPath id="75a2f60d94"><path d="M 84.671875 24.710938 L 273.78125 24.710938 C 287.90625 24.710938 301.449219 30.320312 311.433594 40.308594 C 321.421875 50.292969 327.03125 63.835938 327.03125 77.960938 L 327.03125 267.070312 C 327.03125 281.191406 321.421875 294.738281 311.433594 304.722656 C 301.449219 314.710938 287.90625 320.320312 273.78125 320.320312 L 84.671875 320.320312 C 70.550781 320.320312 57.003906 314.710938 47.019531 304.722656 C 37.03125 294.738281 31.421875 281.191406 31.421875 267.070312 L 31.421875 77.960938 C 31.421875 63.835938 37.03125 50.292969 47.019531 40.308594 C 57.003906 30.320312 70.550781 24.710938 84.671875 24.710938 Z M 84.671875 24.710938 " clip-rule="nonzero"/></clipPath><clipPath id="555fb45741"><path d="M 0.421875 0.710938 L 296.03125 0.710938 L 296.03125 296.320312 L 0.421875 296.320312 Z M 0.421875 0.710938 " clip-rule="nonzero"/></clipPath><clipPath id="f744bcfcc3"><path d="M 53.671875 0.710938 L 242.78125 0.710938 C 256.90625 0.710938 270.449219 6.320312 280.433594 16.308594 C 290.421875 26.292969 296.03125 39.835938 296.03125 53.960938 L 296.03125 243.070312 C 296.03125 257.191406 290.421875 270.738281 280.433594 280.722656 C 270.449219 290.710938 256.90625 296.320312 242.78125 296.320312 L 53.671875 296.320312 C 39.550781 296.320312 26.003906 290.710938 16.019531 280.722656 C 6.03125 270.738281 0.421875 257.191406 0.421875 243.070312 L 0.421875 53.960938 C 0.421875 39.835938 6.03125 26.292969 16.019531 16.308594 C 26.003906 6.320312 39.550781 0.710938 53.671875 0.710938 Z M 53.671875 0.710938 " clip-rule="nonzero"/></clipPath><clipPath id="1d2b896f63"><rect x="0" width="297" y="0" height="297"/></clipPath><clipPath id="53d2a2d3f2"><rect x="0" width="190" y="0" height="269"/></clipPath><clipPath id="f58640b0fb"><rect x="0" width="105" y="0" height="24"/></clipPath></defs><g clip-path="url(#050e4a7eec)"><g clip-path="url(#75a2f60d94)"><g transform="matrix(1, 0, 0, 1, 31, 24)"><g clip-path="url(#1d2b896f63)"><g clip-path="url(#555fb45741)"><g clip-path="url(#f744bcfcc3)"><path fill="#f5f3ef" d="M 0.421875 0.710938 L 296.03125 0.710938 L 296.03125 296.320312 L 0.421875 296.320312 Z M 0.421875 0.710938 " fill-opacity="1" fill-rule="nonzero"/></g></g></g></g></g></g><g transform="matrix(1, 0, 0, 1, 86, 74)"><g clip-path="url(#53d2a2d3f2)"><g fill="#1a2a3a" fill-opacity="1"><g transform="translate(0.35705, 185.599954)"><g><path d="M 9.03125 0 C 11.78125 -2.75 13.328125 -6.359375 13.671875 -10.828125 C 14.015625 -15.296875 14.1875 -19.9375 14.1875 -24.75 L 14.1875 -184.375 L 17.28125 -184.375 C 19.507812 -172 23.847656 -161.46875 30.296875 -152.78125 C 36.742188 -144.101562 44.523438 -136.582031 53.640625 -130.21875 C 62.753906 -123.863281 72.507812 -118.109375 82.90625 -112.953125 C 93.3125 -107.796875 103.582031 -102.679688 113.71875 -97.609375 C 123.863281 -92.535156 133.144531 -86.859375 141.5625 -80.578125 C 149.988281 -74.304688 156.820312 -66.914062 162.0625 -58.40625 C 167.3125 -49.894531 170.195312 -39.535156 170.71875 -27.328125 L 169.171875 -113.203125 C 168.648438 -132.117188 166.96875 -147.378906 164.125 -158.984375 C 161.289062 -170.585938 158.5 -177.765625 155.75 -180.515625 L 179.21875 -180.515625 C 176.46875 -177.765625 174.921875 -174.195312 174.578125 -169.8125 C 174.234375 -165.425781 174.0625 -160.738281 174.0625 -155.75 L 174.0625 3.875 L 170.71875 3.875 L 170.71875 0 C 170.71875 -12.375 168.566406 -23.242188 164.265625 -32.609375 C 159.960938 -41.984375 154.160156 -50.28125 146.859375 -57.5 C 139.554688 -64.726562 131.347656 -71.21875 122.234375 -76.96875 C 113.117188 -82.726562 103.75 -88.101562 94.125 -93.09375 C 84.84375 -98.082031 75.6875 -102.9375 66.65625 -107.65625 C 57.632812 -112.382812 49.507812 -117.539062 42.28125 -123.125 C 35.0625 -128.71875 29.21875 -135.082031 24.75 -142.21875 C 20.28125 -149.351562 17.875 -157.648438 17.53125 -167.109375 L 19.078125 -67.3125 C 19.597656 -48.570312 21.273438 -33.351562 24.109375 -21.65625 C 26.941406 -9.96875 29.738281 -2.75 32.5 0 Z M 9.03125 0 "/></g></g></g></g></g><g transform="matrix(1, 0, 0, 1, 138, 253)"><g clip-path="url(#f58640b0fb)"><g fill="#1a2a3a" fill-opacity="1"><g transform="translate(0.48909, 18.982491)"><g><path d="M 4.96875 -12.875 L 6.625 -12.875 L 11.5 0 L 10.078125 0 L 8.921875 -3.125 L 2.671875 -3.125 L 1.515625 0 L 0.09375 0 Z M 8.484375 -4.328125 L 5.828125 -11.40625 L 5.75 -11.40625 L 3.109375 -4.328125 Z M 8.484375 -4.328125 "/></g></g></g><g fill="#1a2a3a" fill-opacity="1"><g transform="translate(17.596323, 18.982491)"><g><path d="M 6.671875 0.28125 C 5.847656 0.28125 5.097656 0.132812 4.421875 -0.15625 C 3.742188 -0.445312 3.160156 -0.867188 2.671875 -1.421875 C 2.179688 -1.984375 1.796875 -2.679688 1.515625 -3.515625 C 1.242188 -4.359375 1.109375 -5.332031 1.109375 -6.4375 C 1.109375 -7.539062 1.242188 -8.507812 1.515625 -9.34375 C 1.796875 -10.1875 2.175781 -10.882812 2.65625 -11.4375 C 3.144531 -12 3.722656 -12.425781 4.390625 -12.71875 C 5.066406 -13.007812 5.8125 -13.15625 6.625 -13.15625 C 7.3125 -13.15625 7.925781 -13.054688 8.46875 -12.859375 C 9.007812 -12.660156 9.472656 -12.390625 9.859375 -12.046875 C 10.253906 -11.710938 10.550781 -11.316406 10.75 -10.859375 C 10.945312 -10.410156 11.046875 -9.9375 11.046875 -9.4375 C 11.046875 -9.25 11.035156 -9.078125 11.015625 -8.921875 C 11.003906 -8.765625 10.984375 -8.628906 10.953125 -8.515625 C 10.921875 -8.378906 10.894531 -8.253906 10.875 -8.140625 L 9.578125 -8.140625 C 9.609375 -8.242188 9.640625 -8.363281 9.671875 -8.5 C 9.691406 -8.601562 9.710938 -8.726562 9.734375 -8.875 C 9.753906 -9.03125 9.765625 -9.191406 9.765625 -9.359375 C 9.765625 -9.722656 9.691406 -10.0625 9.546875 -10.375 C 9.410156 -10.6875 9.207031 -10.957031 8.9375 -11.1875 C 8.675781 -11.425781 8.347656 -11.613281 7.953125 -11.75 C 7.566406 -11.882812 7.125 -11.953125 6.625 -11.953125 C 6.019531 -11.953125 5.457031 -11.835938 4.9375 -11.609375 C 4.425781 -11.390625 3.984375 -11.050781 3.609375 -10.59375 C 3.234375 -10.132812 2.941406 -9.554688 2.734375 -8.859375 C 2.523438 -8.171875 2.421875 -7.363281 2.421875 -6.4375 C 2.421875 -5.5 2.53125 -4.679688 2.75 -3.984375 C 2.96875 -3.296875 3.265625 -2.722656 3.640625 -2.265625 C 4.023438 -1.816406 4.476562 -1.476562 5 -1.25 C 5.53125 -1.03125 6.113281 -0.921875 6.75 -0.921875 C 7.351562 -0.921875 7.863281 -1 8.28125 -1.15625 C 8.695312 -1.3125 9.039062 -1.492188 9.3125 -1.703125 C 9.625 -1.941406 9.878906 -2.210938 10.078125 -2.515625 L 10.078125 -5.53125 L 7.28125 -5.53125 L 7.28125 -6.734375 L 11.359375 -6.734375 L 11.359375 -2.078125 C 11.054688 -1.640625 10.675781 -1.25 10.21875 -0.90625 C 9.832031 -0.601562 9.347656 -0.328125 8.765625 -0.078125 C 8.179688 0.160156 7.484375 0.28125 6.671875 0.28125 Z M 6.671875 0.28125 "/></g></g></g><g fill="#1a2a3a" fill-opacity="1"><g transform="translate(35.770452, 18.982491)"><g><path d="M 1.75 -12.875 L 9.515625 -12.875 L 9.515625 -11.671875 L 3.03125 -11.671875 L 3.03125 -7.03125 L 8.34375 -7.03125 L 8.34375 -5.828125 L 3.03125 -5.828125 L 3.03125 -1.203125 L 9.515625 -1.203125 L 9.515625 0 L 1.75 0 Z M 1.75 -12.875 "/></g></g></g><g fill="#1a2a3a" fill-opacity="1"><g transform="translate(51.442884, 18.982491)"><g><path d="M 1.75 -12.875 L 3.21875 -12.875 L 10.359375 -2.15625 L 10.453125 -2.15625 L 10.453125 -12.875 L 11.734375 -12.875 L 11.734375 0 L 10.265625 0 L 3.125 -10.71875 L 3.03125 -10.71875 L 3.03125 0 L 1.75 0 Z M 1.75 -12.875 "/></g></g></g><g fill="#1a2a3a" fill-opacity="1"><g transform="translate(70.444792, 18.982491)"><g><path d="M 6.671875 0.28125 C 5.847656 0.28125 5.097656 0.132812 4.421875 -0.15625 C 3.742188 -0.445312 3.160156 -0.867188 2.671875 -1.421875 C 2.179688 -1.984375 1.796875 -2.679688 1.515625 -3.515625 C 1.242188 -4.359375 1.109375 -5.332031 1.109375 -6.4375 C 1.109375 -7.539062 1.242188 -8.507812 1.515625 -9.34375 C 1.796875 -10.1875 2.175781 -10.882812 2.65625 -11.4375 C 3.144531 -12 3.722656 -12.425781 4.390625 -12.71875 C 5.066406 -13.007812 5.8125 -13.15625 6.625 -13.15625 C 7.3125 -13.15625 7.925781 -13.054688 8.46875 -12.859375 C 9.007812 -12.660156 9.472656 -12.390625 9.859375 -12.046875 C 10.253906 -11.710938 10.550781 -11.316406 10.75 -10.859375 C 10.945312 -10.410156 11.046875 -9.9375 11.046875 -9.4375 C 11.046875 -9.25 11.035156 -9.078125 11.015625 -8.921875 C 11.003906 -8.765625 10.984375 -8.628906 10.953125 -8.515625 C 10.921875 -8.378906 10.894531 -8.253906 10.875 -8.140625 L 9.578125 -8.140625 C 9.609375 -8.242188 9.640625 -8.363281 9.671875 -8.5 C 9.691406 -8.601562 9.710938 -8.726562 9.734375 -8.875 C 9.753906 -9.03125 9.765625 -9.191406 9.765625 -9.359375 C 9.765625 -9.722656 9.691406 -10.0625 9.546875 -10.375 C 9.410156 -10.6875 9.207031 -10.957031 8.9375 -11.1875 C 8.675781 -11.425781 8.347656 -11.613281 7.953125 -11.75 C 7.566406 -11.882812 7.125 -11.953125 6.625 -11.953125 C 6.019531 -11.953125 5.457031 -11.835938 4.9375 -11.609375 C 4.425781 -11.390625 3.984375 -11.050781 3.609375 -10.59375 C 3.234375 -10.132812 2.941406 -9.554688 2.734375 -8.859375 C 2.523438 -8.171875 2.421875 -7.363281 2.421875 -6.4375 C 2.421875 -5.5 2.53125 -4.679688 2.75 -3.984375 C 2.96875 -3.296875 3.265625 -2.722656 3.640625 -2.265625 C 4.023438 -1.816406 4.476562 -1.476562 5 -1.25 C 5.53125 -1.03125 6.113281 -0.921875 6.75 -0.921875 C 7.382812 -0.921875 7.9375 -1.023438 8.40625 -1.234375 C 8.875 -1.453125 9.257812 -1.691406 9.5625 -1.953125 C 9.914062 -2.253906 10.21875 -2.597656 10.46875 -2.984375 L 11.203125 -2.078125 C 10.921875 -1.640625 10.570312 -1.25 10.15625 -0.90625 C 9.78125 -0.601562 9.304688 -0.328125 8.734375 -0.078125 C 8.171875 0.160156 7.484375 0.28125 6.671875 0.28125 Z M 6.671875 0.28125 "/></g></g></g><g fill="#1a2a3a" fill-opacity="1"><g transform="translate(87.993491, 18.982491)"><g><path d="M 4.59375 -4.65625 L 0 -12.875 L 1.515625 -12.875 L 5.203125 -6.21875 L 5.28125 -6.21875 L 8.96875 -12.875 L 10.484375 -12.875 L 5.890625 -4.65625 L 5.890625 0 L 4.59375 0 Z M 4.59375 -4.65625 "/></g></g></g></g></g></svg>